<svg width="150" height="100" viewBox="0 0 150 100" fill="none" xmlns="http://www.w3.org/2000/svg">
<path d="M83.7044 33.5664H71.2669V17.0664H13.2253C8.66484 17.0664 4.93359 20.7789 4.93359 25.3164V70.6914H13.2253C13.2253 77.5389 18.7807 83.0664 25.6628 83.0664C32.5448 83.0664 38.1003 77.5389 38.1003 70.6914H62.9753C62.9753 77.5389 68.5307 83.0664 75.4128 83.0664C82.2948 83.0664 87.8503 77.5389 87.8503 70.6914H96.1419V50.0664L83.7044 33.5664ZM25.6628 76.8789C22.2217 76.8789 19.444 74.1152 19.444 70.6914C19.444 67.2677 22.2217 64.5039 25.6628 64.5039C29.1038 64.5039 31.8815 67.2677 31.8815 70.6914C31.8815 74.1152 29.1038 76.8789 25.6628 76.8789ZM81.6315 39.7539L89.7573 50.0664H71.2669V39.7539H81.6315ZM75.4128 76.8789C71.9717 76.8789 69.194 74.1152 69.194 70.6914C69.194 67.2677 71.9717 64.5039 75.4128 64.5039C78.8538 64.5039 81.6315 67.2677 81.6315 70.6914C81.6315 74.1152 78.8538 76.8789 75.4128 76.8789Z" fill="#334155"/>
</svg>
